<svg width="17" height="17" viewBox="0 0 17 17" fill="none" xmlns="http://www.w3.org/2000/svg">
<path d="M13.2529 5.10708C13.1871 5.04069 13.1087 4.98799 13.0224 4.95203C12.9361 4.91607 12.8435 4.89755 12.75 4.89755C12.6565 4.89755 12.5639 4.91607 12.4776 4.95203C12.3913 4.98799 12.3129 5.04069 12.2471 5.10708L6.96999 10.3912L4.7529 8.16708C4.68453 8.10103 4.60382 8.0491 4.51538 8.01425C4.42695 7.9794 4.33251 7.9623 4.23746 7.96395C4.14242 7.96559 4.04863 7.98594 3.96145 8.02383C3.87427 8.06172 3.7954 8.11642 3.72936 8.18478C3.66332 8.25315 3.61139 8.33386 3.57653 8.4223C3.54168 8.51074 3.52459 8.60518 3.52623 8.70022C3.52788 8.79527 3.54822 8.88906 3.58612 8.97624C3.62401 9.06342 3.6787 9.14228 3.74707 9.20833L6.46707 11.9283C6.53292 11.9947 6.61126 12.0474 6.69758 12.0834C6.78389 12.1193 6.87648 12.1378 6.96999 12.1378C7.06349 12.1378 7.15608 12.1193 7.24239 12.0834C7.32871 12.0474 7.40705 11.9947 7.4729 11.9283L13.2529 6.14833C13.3248 6.082 13.3822 6.00149 13.4214 5.91189C13.4607 5.82229 13.4809 5.72552 13.4809 5.6277C13.4809 5.52988 13.4607 5.43312 13.4214 5.34351C13.3822 5.25391 13.3248 5.17341 13.2529 5.10708Z" fill="#3361FF"/>
</svg>
