<svg width="31" height="31" viewBox="0 0 31 31" fill="none" xmlns="http://www.w3.org/2000/svg">
<path fill-rule="evenodd" clip-rule="evenodd" d="M21.2044 19V14C21.2044 10.93 19.5644 8.36 16.7044 7.68V7C16.7044 6.17 16.0244 5.5 15.1944 5.5C14.3644 5.5 13.7044 6.17 13.7044 7V7.68C10.8344 8.36 9.20441 10.92 9.20441 14V19L7.90441 20.29C7.27441 20.92 7.71441 22 8.60441 22H21.7744C22.6644 22 23.1144 20.92 22.4844 20.29L21.2044 19ZM15.1944 25C16.2944 25 17.1944 24.1 17.1944 23H13.1944C13.1944 24.1 14.0844 25 15.1944 25ZM9.97441 7.73C10.3944 7.35 10.4044 6.7 10.0044 6.3C9.62441 5.92 9.00441 5.91 8.61441 6.28C6.90441 7.84 5.72441 9.96 5.34441 12.34C5.25441 12.95 5.72441 13.5 6.34441 13.5C6.82441 13.5 7.24441 13.15 7.32441 12.67C7.62441 10.73 8.58441 9 9.97441 7.73ZM21.8044 6.28C21.4044 5.91 20.7844 5.92 20.4044 6.3C20.0044 6.7 20.0244 7.34 20.4344 7.72C21.8144 8.99 22.7844 10.72 23.0844 12.66C23.1544 13.14 23.5744 13.49 24.0644 13.49C24.6744 13.49 25.1544 12.94 25.0544 12.33C24.6744 9.96 23.5044 7.85 21.8044 6.28Z" fill="#334466"/>
</svg>
