<svg width="31" height="31" viewBox="0 0 31 31" fill="none" xmlns="http://www.w3.org/2000/svg">
<path fill-rule="evenodd" clip-rule="evenodd" d="M24.6666 5.5H6.66663C5.56663 5.5 4.66663 6.4 4.66663 7.5V19.5C4.66663 20.6 5.56663 21.5 6.66663 21.5H13.6666V23.5H12.6666C12.1166 23.5 11.6666 23.95 11.6666 24.5C11.6666 25.05 12.1166 25.5 12.6666 25.5H18.6666C19.2166 25.5 19.6666 25.05 19.6666 24.5C19.6666 23.95 19.2166 23.5 18.6666 23.5H17.6666V21.5H24.6666C25.7666 21.5 26.6666 20.6 26.6666 19.5V7.5C26.6666 6.4 25.7666 5.5 24.6666 5.5ZM23.6666 19.5H7.66663C7.11663 19.5 6.66663 19.05 6.66663 18.5V8.5C6.66663 7.95 7.11663 7.5 7.66663 7.5H23.6666C24.2166 7.5 24.6666 7.95 24.6666 8.5V18.5C24.6666 19.05 24.2166 19.5 23.6666 19.5Z" fill="#334466"/>
</svg>
